<?xml version="1.0" encoding="UTF-8"?>
<svg id="Logo" xmlns="http://www.w3.org/2000/svg" version="1.1" viewBox="0 0 1080 864">
  <defs>
    <style>
      .cls-1 {
        fill: #fff;
        stroke-width: 0px;
      }
    </style>
  </defs>
  <path class="cls-1" d="M338.42,502.69c-18.86,8.31-39.17,12.53-60.67,12.53-6.86,0-12.4-.92-16.62-2.9-3.96-1.85-6.86-4.49-8.18-7.91-2.51-6.2,0-14.38,6.46-21.37.53-.53,1.32-.92,1.98-.92.79,0,1.58.39,2.11.92.92,1.06,1.06,2.64,0,3.83-2.24,2.37-3.96,4.88-4.88,7.52-.92,2.11-1.71,5.14-.53,7.91.79,2.11,2.64,3.83,5.41,5.01,3.43,1.58,8.18,2.37,14.24,2.37,20.71,0,40.36-4.09,58.43-12.13,16.22-7.12,30.86-17.14,43.52-29.94,11.34-11.47,20.84-24.79,27.57-38.77,6.33-13.19,10.02-26.25,10.68-37.99.53-10.16-1.19-18.73-5.14-25.06-3.96-6.46-10.16-10.16-18.33-11.08-10.95-1.19-24.14.39-38.12,4.35-13.19,3.83-26.91,9.89-39.44,17.41-12.53,7.52-23.48,16.22-31.39,25.06-8.44,9.36-13.32,18.6-14.24,26.91-.79,6.2,1.06,10.68,5.67,13.85,7.65,5.54,22.69,6.86,42.6,4.09,1.58-.26,3.43-.53,5.14-.92,3.69-.66,6.86-3.03,8.44-6.46,4.88-10.42,10.29-20.57,16.35-30.34.26-.66.92-1.19,1.72-1.32.66-.13,1.45,0,2.11.39,1.19.79,1.58,2.51.79,3.83-5.14,8.44-10.02,17.41-14.37,26.38-.4.92-.26,1.85.39,2.64.66.79,1.58,1.06,2.64.79,8.7-2.37,16.75-5.27,23.48-8.31,1.32-.66,3.03-.13,3.69,1.32.26.66.39,1.32.13,2.11-.26.66-.79,1.19-1.45,1.58-8.04,3.69-17.81,6.99-28.36,9.76-3.56.92-6.59,3.43-7.91,6.86-3.69,9.1-6.99,18.33-9.89,27.7-.39,1.45-1.98,2.37-3.43,1.85-.66-.13-1.19-.66-1.58-1.32-.4-.66-.4-1.32-.26-2.11,2.64-8.57,5.54-17.14,8.84-25.46.4-.92.26-2.11-.39-2.9-.66-.79-1.71-1.19-2.64-1.05l-2.64.39c-9.89,1.45-18.73,1.85-26.25,1.32-8.84-.79-15.69-2.77-20.44-6.2-3.03-2.11-5.14-4.75-6.46-7.91-1.45-3.3-1.98-6.99-1.45-11.21.53-4.88,2.24-10.03,5.01-15.17,2.64-4.88,6.2-9.89,10.55-14.77,8.44-9.23,19.65-18.33,32.71-26.11,13.06-7.78,27.17-13.98,40.89-17.94,14.64-4.22,28.49-5.8,40.09-4.62,9.5,1.05,17.01,5.54,21.89,12.79,5.01,7.25,7.25,17.41,6.59,29.15-.66,12.53-4.62,26.38-11.21,40.09-6.99,14.51-16.88,28.49-28.62,40.23-13.19,13.32-28.49,23.87-45.24,31.26Z"/>
  <path class="cls-1" d="M472.41,463.91c-11.34,3.3-22.03,6.46-34.16,6.33-4.35,0-8.18-.39-8.7-5.8,0-.79-.79-1.19-1.45-.66-3.69,3.03-10.02,8.97-13.85,13.06-.92,1.06-2.64,1.32-3.96.53-1.45-.92-1.71-2.51-.92-4.62,1.71-4.09,3.56-8.44,5.41-12.4.53-1.45,2.11-2.24,3.43-1.71,1.58.53,2.11,2.24,1.58,3.83l-.53,1.19c-.13.26.26.39.4.26,2.64-3.03,8.18-7.52,10.55-7.52,1.98,0,3.43.92,4.22,2.77.79,2.11,0,5.28,2.38,5.54,12.27.92,22.29-2.51,34.16-6.07,1.32-.4,2.77.39,3.3,1.85.53,1.45-.26,3.03-1.85,3.43Z"/>
  <path class="cls-1" d="M526.35,460.22c.79,1.45.13,3.17-1.32,3.83-10.16,4.22-32.84,11.08-45.9,11.08-.92,0-1.85-.13-2.64-.13-1.85-.13-4.48-.79-6.33-2.77-1.32-1.58-1.98-3.56-1.98-5.93.26-6.59,6.99-14.24,15.17-14.24,2.24,0,4.22,1.32,5.27,3.3.92,2.11.66,4.49-.79,6.33-1.58,2.11-5.01,4.09-12.4,3.16-.79-.13-1.58.53-1.72,1.32v.26c-.13,2.24,1.58,2.77,3.17,2.9,5.27.4,14.38-.92,25.46-3.82,8.57-2.24,15.96-4.88,20.44-6.73,1.32-.53,2.9,0,3.56,1.32v.13ZM479,459.56c2.77,0,4.09-.66,4.62-1.32.13-.13.13-.39.13-.53-.13-.13-.26-.13-.4-.13-1.71,0-3.3.53-4.48,1.32-.4.13-.26.66.13.66Z"/>
  <path class="cls-1" d="M587.54,463.91c-12.27,6.33-21.37,10.16-27.96,11.74-2.24.53-4.09.79-5.8.79-.79,0-1.58-.13-2.38-.26-2.24-.39-4.09-1.45-5.27-3.03-.79-1.05-1.45-2.24-1.85-3.43-.26-.92-1.45-1.45-2.38-.92-1.98,1.19-4.22,2.24-6.33,3.17-11.08,5.01-14.38,3.43-15.43,2.9-1.71-.79-2.64-2.38-2.64-4.35,0-3.16,1.06-6.33,3.03-8.97,1.58-2.24,3.96-4.09,6.59-5.54,4.75-2.51,9.76-2.77,12.66-.66.66.4,1.58,1.19,2.24,2.51.92,1.85-.66,4.09-2.77,3.83h-.13c-.92-.13-1.71-.79-2.11-1.58-.13-.26-.26-.26-.26-.39-.92-.53-3.69-.66-6.99,1.06-1.45.79-5.54,3.16-6.46,7.65-.26.79.53,1.45,1.32,1.32,1.71-.26,4.62-1.06,8.97-3.03,5.67-2.51,10.68-5.54,12.79-7.25,2.38-1.98,5.67.92,4.09,3.56-1.32,2.38-1.32,4.62.26,6.73,1.19,1.58,4.88,1.06,7.78.4,5.94-1.32,15.3-5.28,27.04-11.34,1.32-.66,2.77-.13,3.3,1.32.66,1.45.13,3.17-1.32,3.83Z"/>
  <path class="cls-1" d="M674.84,463.52c-21.76,10.02-33.1,15.3-39.04,15.3-1.58,0-2.9-.39-3.96-1.06-2.9-1.85-2.64-5.67-2.11-8.97.13-.53-.39-.92-.79-.66-.26.13-.66.26-.92.53-2.24,1.19-4.75,2.9-7.12,4.62-4.75,3.3-7.39,5.01-9.63,5.01-1.45,0-2.77-.53-3.56-1.58-1.71-2.24-.92-5.54-.13-8.97.13-.53.26-1.06.4-1.58.13-.53-.4-1.06-1.06-.92-3.3,1.19-7.39,3.96-10.95,6.59-6.07,4.22-11.87,8.31-16.62,6.2-1.06-.39-1.85-1.32-2.24-2.37-1.32-4.62,5.41-12.79,7.91-16.22.66-1.06,2.11-1.45,3.3-.92,1.58.79,2.11,2.77,1.19,4.22-1.58,2.37-3.56,4.88-5.14,7.52-1.19,1.98-1.19,3.03,1.06,1.98,2.11-1.19,4.62-2.9,7.25-4.75,5.67-3.96,11.61-8.18,17.15-8.04,1.32,0,2.37.53,3.16,1.45,1.45,1.98.79,4.88,0,8.31-.13.39-.26,1.05-.39,1.71-.13.66.53,1.06,1.06.79,1.32-.92,2.9-1.98,4.22-2.9,6.59-4.62,11.61-7.78,15.56-6.99.92.13,1.58.66,2.11,1.32,1.71,2.64-.39,6.33-.66,9.36,0,1.19,1.45,1.06,2.37.79,1.85-.26,4.22-.92,7.52-2.11,5.94-2.24,15.04-6.59,27.83-12.4,1.32-.66,3.03,0,3.69,1.32.53,1.19-.13,2.77-1.45,3.43Z"/>
  <path class="cls-1" d="M707.41,463.91c.53-1.19,2.11-1.58,3.3-.92.26.13.66-.13.53-.53-.39-4.48,4.22-6.73,7.78-6.73,2.77,0,4.88,1.32,5.94,3.56.39.92.66,2.11.66,3.3.13.79.66,1.32,1.45,1.32,10.95,0,21.5-2.11,31.39-5.27,1.32-.4,2.9.26,3.43,1.71.53,1.45-.39,3.03-1.85,3.56-7.91,2.51-16.88,4.48-25.32,5.14-3.43.39-6.59.39-9.36.39-.79-.13-1.58.26-1.98,1.06-2.51,4.48-7.65,7.12-12.27,5.8-5.41-1.45-5.67-8.18-3.69-12.4ZM712.02,466.94c-.39,1.19-.79,3.56.53,4.09,1.19.39,2.9.26,4.75-1.72.26-.26.53-.66,0-.92-1.45-.39-2.77-.92-3.83-1.85-.4-.53-1.19-.13-1.45.4ZM717.3,461.54c-.4.13-.4.79-.13.92.92.53,1.58.66,2.37.79.26.13.66-.13.66-.53,0-.93-.26-1.45-1.19-1.45-.79,0-1.32.13-1.71.26Z"/>
  <path class="cls-1" d="M826.24,463.78c-3.83,1.58-11.21,4.49-18.86,7.26-5.8,1.98-10.55,3.56-14.24,4.48-3.16.79-5.54,1.19-7.39,1.19-1.19,0-2.24-.26-3.03-.66-1.05-.53-1.71-1.45-1.85-2.51-.39-1.98.66-3.83,1.72-5.8,0-.13.13-.26.13-.39.4-.53-.13-1.32-.79-1.19-.92.13-1.98.39-3.43.92-3.43,1.06-7.39,2.77-10.82,4.35-5.8,2.64-9.23,4.09-11.61,4.09-.92,0-1.58-.13-2.24-.66-1.06-.66-1.71-1.85-1.58-3.17,0-2.77,2.11-6.59,5.14-11.87.79-1.32,2.51-1.98,3.83-1.19,1.19.79,1.72,2.51.92,3.83-.92,1.58-2.11,3.56-2.9,5.14-.39.66.26,1.32.92,1.06,1.72-.66,3.56-1.58,5.14-2.24,10.02-4.62,17.54-7.65,21.89-5.01,2.51,1.45,1.98,4.35,1.85,5.14-.26,1.06-.79,1.98-1.32,3.17-.26.66.26,1.19.92,1.06,2.9-.53,8.18-1.85,17.67-5.27,6.99-2.51,14.11-5.28,17.94-6.73,1.32-.66,2.9,0,3.56,1.45.53,1.32-.13,3.03-1.58,3.56Z"/>
</svg>